<!DOCTYPE svg PUBLIC "-//W3C//DTD SVG 20010904//EN" "http://www.w3.org/TR/2001/REC-SVG-20010904/DTD/svg10.dtd">
<svg version="1.0" xmlns="http://www.w3.org/2000/svg" width="200px" height="165px" viewBox="0 0 2000 1650" preserveAspectRatio="xMidYMid meet">
<g id="layer101" fill="#3f435e" stroke="none">
 <path d="M0 825 l0 -825 1000 0 1000 0 0 825 0 825 -1000 0 -1000 0 0 -825z"/>
 </g>
<g id="layer102" fill="#505577" stroke="none">
 <path d="M0 825 l0 -825 1000 0 1000 0 0 825 0 825 -1000 0 -1000 0 0 -825z m767 618 c-4 -3 -7 0 -7 7 0 7 3 10 7 7 3 -4 3 -10 0 -14z m110 -160 c-4 -3 -10 -3 -14 0 -3 4 0 7 7 7 7 0 10 -3 7 -7z m600 0 c-4 -3 -10 -3 -14 0 -3 4 0 7 7 7 7 0 10 -3 7 -7z m320 -40 c-4 -3 -10 -3 -14 0 -3 4 0 7 7 7 7 0 10 -3 7 -7z m-1100 -240 c-4 -3 -10 -3 -14 0 -3 4 0 7 7 7 7 0 10 -3 7 -7z"/>
 </g>
<g id="layer103" fill="#515688" stroke="none">
 <path d="M0 825 l0 -825 1000 0 1000 0 0 825 0 825 -1000 0 -1000 0 0 -825z m247 628 c-4 -3 -10 -3 -14 0 -3 4 0 7 7 7 7 0 10 -3 7 -7z m193 -58 l0 -65 -84 0 c-47 0 -88 5 -91 10 -4 6 24 10 77 10 l83 0 0 47 c0 33 -5 50 -15 55 -11 5 -9 7 8 7 21 1 22 -3 22 -64z m149 55 c-10 -6 -15 -23 -14 -52 l1 -43 59 -5 c75 -7 51 -22 -26 -18 l-54 3 -3 49 c-4 62 2 76 30 76 19 -1 20 -2 7 -10z m78 4 c-3 -3 -12 -4 -19 -1 -8 3 -5 6 6 6 11 1 17 -2 13 -5z m84 -6 c0 -10 2 -10 6 0 11 27 23 -2 23 -54 0 -58 -13 -73 -47 -59 -17 7 -16 8 2 14 31 9 33 74 3 95 -18 13 -19 16 -5 16 9 0 17 -6 18 -12z m189 8 c0 -2 -9 -6 -20 -9 -11 -3 -20 -1 -20 4 0 5 9 9 20 9 11 0 20 -2 20 -4z m163 -3 c-7 -2 -21 -2 -30 0 -10 3 -4 5 12 5 17 0 24 -2 18 -5z m148 -2 c-12 -8 -12 -12 -2 -25 9 -11 10 -20 2 -35 -21 -38 -14 -41 84 -41 l95 0 0 49 c0 48 -1 50 -32 54 -27 4 -25 4 7 3 l40 -1 0 -60 0 -60 -110 0 -110 0 -3 49 c-4 59 2 76 25 76 15 0 15 -2 4 -9z m339 -1 c-8 -5 -12 -10 -8 -10 4 0 2 -14 -4 -30 -17 -50 0 -60 99 -60 l84 0 -3 40 c-1 22 1 43 5 46 4 4 7 -11 7 -34 0 -22 3 -47 6 -56 5 -14 -7 -16 -93 -16 -64 0 -103 4 -111 12 -7 7 -12 36 -12 65 0 48 2 53 23 53 18 0 19 -2 7 -10z m177 3 c-4 -3 -10 -3 -14 0 -3 4 0 7 7 7 7 0 10 -3 7 -7z m-1530 -60 c-3 -10 -5 -2 -5 17 0 19 2 27 5 18 2 -10 2 -26 0 -35z m163 38 c0 -12 -29 -23 -41 -15 -18 10 -9 24 16 24 14 0 25 -4 25 -9z m305 -1 c3 -5 -3 -10 -15 -10 -12 0 -18 5 -15 10 3 6 10 10 15 10 5 0 12 -4 15 -10z m405 -45 l0 -56 -102 3 c-56 2 -103 7 -105 13 -2 6 33 9 93 8 l96 -2 -6 30 c-6 31 1 59 15 59 5 0 9 -25 9 -55z m277 48 c-4 -3 -10 -3 -14 0 -3 4 0 7 7 7 7 0 10 -3 7 -7z m-760 -30 c-4 -3 -7 0 -7 7 0 7 3 10 7 7 3 -4 3 -10 0 -14z m280 -5 c-3 -8 -6 -5 -6 6 -1 11 2 17 5 13 3 -3 4 -12 1 -19z m-602 -8 c3 -5 -1 -10 -9 -10 -9 0 -16 5 -16 10 0 6 4 10 9 10 6 0 13 -4 16 -10z m575 -105 c0 -29 30 -74 58 -89 45 -23 131 -9 159 25 6 8 14 29 18 47 6 31 9 33 47 30 35 -3 41 -7 54 -38 12 -31 12 -33 -1 -16 -8 11 -15 23 -15 28 0 4 -16 8 -35 8 -31 0 -35 -3 -41 -36 -4 -19 -14 -38 -23 -42 -9 -3 -33 -17 -54 -30 -40 -27 -56 -25 -117 16 -14 9 -29 17 -35 17 -5 1 -9 6 -8 13 2 6 -8 23 -21 37 l-25 26 -27 -30 c-15 -17 -31 -28 -37 -24 -6 4 -8 0 -4 -11 4 -11 3 -15 -4 -10 -6 4 -15 0 -20 -7 -5 -8 -9 -9 -9 -3 0 6 11 23 25 38 14 15 25 36 25 47 0 16 7 19 45 19 34 0 45 -4 45 -15z m-725 -5 c-3 -5 -13 -6 -23 -3 -12 4 -14 3 -7 -4 6 -6 25 -14 43 -18 28 -6 32 -4 32 14 0 25 15 28 16 4 1 -10 3 -24 5 -32 2 -7 -2 -16 -10 -19 -9 -3 -11 0 -6 7 4 8 2 11 -6 10 -13 -2 -27 2 -77 22 -28 11 -20 29 14 29 14 0 23 -4 19 -10z m391 -15 c3 -14 21 -38 39 -54 29 -25 41 -29 84 -27 50 2 58 -5 34 -31 -17 -19 -28 -16 -12 3 11 13 11 15 -2 14 -45 -7 -77 3 -111 33 -20 17 -38 41 -40 52 -5 29 -45 31 -76 3 -14 -13 -23 -18 -20 -13 3 6 8 18 11 28 5 12 17 17 46 17 35 0 42 -4 47 -25z m1001 8 c3 -10 15 -30 25 -45 17 -25 17 -26 1 -23 -10 2 -21 4 -25 4 -4 1 -5 7 -2 14 3 8 -4 24 -14 37 -22 27 -52 21 -52 -11 0 -11 -5 -19 -12 -17 -7 3 -28 -11 -47 -29 -19 -18 -39 -33 -44 -33 -4 0 -5 -6 -1 -12 6 -10 4 -10 -7 -2 -8 6 -30 11 -50 10 -20 -1 -36 3 -36 9 0 7 19 10 49 9 41 -2 53 2 83 29 19 17 35 37 35 44 0 7 5 13 11 13 5 0 7 5 4 10 -4 6 10 10 35 10 30 0 42 -5 47 -17z m273 7 c7 11 10 11 10 2 0 -7 -7 -15 -15 -18 -8 -4 -12 -10 -9 -15 3 -5 13 -5 24 1 26 14 47 13 33 -1 -5 -5 -24 -11 -41 -11 -17 -1 -29 -4 -27 -8 5 -9 -45 -33 -53 -25 -3 3 -1 5 5 5 5 0 18 18 29 39 12 25 22 35 26 28 6 -9 11 -8 18 3z m90 1 c0 -13 -27 -21 -47 -14 -15 6 -15 7 3 14 27 11 44 11 44 0z m-1478 -77 c-2 -14 -10 -23 -16 -21 -7 3 -23 -1 -36 -8 -23 -12 -23 -13 16 -26 21 -7 43 -12 47 -11 15 4 48 -19 41 -30 -4 -7 1 -8 16 -3 15 5 20 4 16 -4 -4 -6 -2 -11 5 -11 6 0 41 -15 78 -34 36 -18 72 -31 80 -28 9 3 11 0 7 -7 -6 -8 0 -10 21 -6 19 5 24 4 15 -3 -10 -7 -4 -11 22 -16 20 -4 34 -11 31 -16 -3 -5 4 -12 16 -15 11 -4 19 -9 16 -11 -2 -3 -74 27 -158 66 -206 95 -199 92 -192 103 4 6 0 8 -10 4 -20 -8 -143 48 -127 58 6 4 17 2 24 -4 10 -8 17 -7 26 4 7 8 18 15 25 15 7 0 18 7 25 15 17 20 18 19 12 -11z m-171 -1 c13 -17 13 -17 -6 -3 -11 8 -22 16 -24 17 -2 2 0 3 6 3 6 0 17 -8 24 -17z m192 2 c-3 -9 -8 -14 -10 -11 -3 3 -2 9 2 15 9 16 15 13 8 -4z m811 0 c4 -13 2 -14 -14 -5 -23 13 -26 20 -6 20 8 0 16 -7 20 -15z m361 -15 c3 -5 -1 -10 -9 -10 -9 0 -16 5 -16 10 0 6 4 10 9 10 6 0 13 -4 16 -10z m59 -9 c7 -11 -68 -45 -86 -38 -7 3 -3 6 10 6 12 1 30 10 39 21 19 22 29 25 37 11z m-1134 -45 c0 -11 -19 -15 -25 -6 -3 5 1 10 9 10 9 0 16 -2 16 -4z m250 -6 c0 -5 -2 -10 -4 -10 -3 0 -8 5 -11 10 -3 6 -1 10 4 10 6 0 11 -4 11 -10z m766 -12 c-12 -7 -21 -7 -28 0 -6 6 0 10 18 10 23 0 24 -2 10 -10z m-36 -13 c0 -2 -17 -12 -37 -21 -21 -9 -72 -32 -113 -51 -116 -54 -142 -65 -136 -54 3 5 2 11 -4 13 -6 2 0 9 12 17 21 13 22 13 9 -2 -7 -10 -9 -17 -3 -17 5 0 15 7 22 15 7 8 16 12 21 10 9 -6 130 53 140 67 3 5 13 6 22 2 9 -3 17 -1 17 4 0 6 10 13 23 15 12 2 23 5 25 6 1 0 2 -1 2 -4z m-300 -139 c0 -2 -7 -7 -16 -10 -8 -3 -12 -2 -9 4 6 10 25 14 25 6z m-55 -26 c-10 -11 -25 -20 -34 -20 -9 0 -44 -14 -79 -30 -47 -24 -66 -28 -80 -21 -15 9 -14 10 7 11 23 0 75 21 151 60 47 24 57 24 35 0z m-319 -2 c-10 -6 -22 -6 -26 -2 -5 5 3 10 18 11 22 1 24 0 8 -9z m31 -5 c-8 -8 52 -35 62 -28 4 2 8 -2 8 -10 0 -12 -6 -11 -36 1 -20 9 -42 18 -49 21 -11 5 -11 7 0 14 16 10 24 12 15 2z"/>
 <path d="M993 1163 c4 -3 10 -3 14 0 3 4 0 7 -7 7 -7 0 -10 -3 -7 -7z"/>
 </g>
<g id="layer104" fill="#5d6276" stroke="none">
 <path d="M0 825 l0 -825 1000 0 1000 0 0 825 0 825 -1000 0 -1000 0 0 -825z m440 570 l0 -66 -102 3 -103 3 -3 63 -3 62 106 0 105 0 0 -65z m310 53 c0 -9 3 -8 10 2 14 22 22 -7 18 -66 l-3 -49 -110 0 -110 0 -3 49 c-5 76 -5 76 103 76 69 0 95 -3 95 -12z m360 -53 l0 -66 -102 3 -103 3 -3 63 -3 62 106 0 105 0 0 -65z m335 0 l0 -60 -110 0 -110 0 -3 49 c-5 78 -7 77 115 74 l108 -3 0 -60z m323 18 c2 -27 5 -56 8 -65 5 -16 -4 -18 -93 -18 -64 0 -103 4 -111 12 -7 7 -12 36 -12 65 l0 53 103 0 103 0 2 -47z m-888 -132 c0 -11 5 -23 10 -26 6 -4 10 -14 8 -23 -1 -10 1 -18 5 -19 4 -2 20 -9 35 -17 32 -16 86 -15 127 4 17 7 33 13 37 12 5 -1 7 1 6 6 -1 4 1 24 5 45 8 35 10 37 48 37 34 0 41 -4 51 -27 6 -16 10 -36 10 -45 0 -10 4 -21 10 -24 7 -4 8 -2 4 4 -11 19 15 14 29 -5 19 -26 111 -27 136 -2 11 11 24 17 30 14 5 -4 9 -3 8 2 -2 16 13 53 23 53 5 0 6 5 3 10 -4 6 10 10 34 10 34 0 42 -4 55 -31 10 -20 13 -36 7 -43 -7 -8 0 -12 20 -12 17 -1 38 -9 48 -18 13 -12 20 -13 29 -4 8 8 15 9 22 2 7 -7 -3 -16 -32 -28 -24 -10 -51 -22 -61 -27 -10 -5 -23 -7 -29 -3 -7 4 -8 3 -4 -4 4 -7 1 -12 -8 -12 -8 0 -16 5 -18 12 -3 7 -7 5 -11 -6 -4 -10 -3 -15 3 -11 6 3 10 4 10 1 0 -3 -15 -12 -32 -19 -18 -8 -64 -29 -102 -46 -37 -17 -73 -28 -80 -24 -6 3 -8 3 -4 -2 10 -10 -36 -39 -77 -49 -16 -4 -31 -6 -31 -4 -1 2 -11 -6 -23 -16 -24 -22 -121 -57 -135 -49 -5 3 -6 1 -2 -5 12 -19 -39 -34 -69 -20 -13 6 -22 15 -18 21 4 6 1 7 -6 2 -14 -8 -93 24 -86 35 3 5 -2 11 -11 14 -9 4 -13 2 -8 -5 4 -7 1 -10 -7 -7 -8 3 -13 10 -12 16 1 5 -7 8 -19 4 -16 -4 -19 -2 -13 8 5 8 4 11 -2 7 -6 -4 -35 4 -64 17 -29 12 -49 25 -43 28 5 3 3 3 -4 2 -17 -5 -122 48 -116 57 2 4 -1 11 -7 15 -8 4 -9 3 -5 -4 8 -13 -4 -15 -28 -6 -9 3 -13 11 -9 17 4 6 1 7 -6 2 -16 -9 -62 15 -54 28 4 6 0 8 -10 4 -20 -8 -143 48 -127 58 6 4 18 4 26 1 15 -6 44 7 77 33 16 13 17 13 11 -5 -5 -15 -4 -16 4 -4 6 8 9 17 6 21 -2 4 0 19 6 33 8 22 16 26 50 26 33 0 41 -4 45 -23 4 -13 20 -36 37 -52 26 -25 39 -29 90 -31 42 0 61 3 65 13 3 7 9 10 14 7 5 -3 6 2 3 10 -7 19 12 22 20 4 4 -9 5 -8 4 2 0 8 3 30 7 48 7 30 10 32 51 32 37 0 44 -3 44 -19z m-664 -10 c1 -9 3 -22 5 -30 2 -7 -2 -16 -10 -19 -9 -3 -11 0 -6 8 6 10 4 12 -8 7 -9 -3 -19 -2 -22 3 -4 6 -17 10 -29 10 -25 0 -50 22 -39 34 4 3 30 6 58 5 39 -2 51 -6 51 -18z m1602 4 c8 11 92 17 92 7 0 -13 -68 -44 -94 -44 -14 0 -24 -4 -21 -8 5 -9 -45 -33 -53 -25 -3 3 -1 5 5 5 5 0 18 18 29 39 12 25 22 35 26 28 5 -8 11 -8 16 -2z m-1557 -72 c13 -17 13 -17 -6 -3 -11 8 -22 16 -24 17 -2 2 0 3 6 3 6 0 17 -8 24 -17z"/>
 <path d="M413 1443 c4 -3 10 -3 14 0 3 4 0 7 -7 7 -7 0 -10 -3 -7 -7z"/>
 <path d="M1243 1443 c4 -3 10 -3 14 0 3 4 0 7 -7 7 -7 0 -10 -3 -7 -7z"/>
 <path d="M465 1270 c3 -5 8 -10 11 -10 3 0 2 5 -1 10 -3 6 -8 10 -11 10 -3 0 -2 -4 1 -10z"/>
 <path d="M1205 1240 c3 -5 8 -10 11 -10 3 0 2 5 -1 10 -3 6 -8 10 -11 10 -3 0 -2 -4 1 -10z"/>
 <path d="M910 1186 c0 -2 7 -7 16 -10 8 -3 12 -2 9 4 -6 10 -25 14 -25 6z"/>
 <path d="M1063 1173 c4 -3 10 -3 14 0 3 4 0 7 -7 7 -7 0 -10 -3 -7 -7z"/>
 <path d="M628 1163 c6 -2 18 -2 25 0 6 3 1 5 -13 5 -14 0 -19 -2 -12 -5z"/>
 <path d="M993 1163 c4 -3 10 -3 14 0 3 4 0 7 -7 7 -7 0 -10 -3 -7 -7z"/>
 <path d="M1373 1163 c4 -3 10 -3 14 0 3 4 0 7 -7 7 -7 0 -10 -3 -7 -7z"/>
 <path d="M1605 1163 c-31 -7 -40 -21 -11 -16 15 3 29 9 32 14 3 5 4 8 2 8 -2 -1 -12 -3 -23 -6z"/>
 <path d="M683 1133 c4 -3 10 -3 14 0 3 4 0 7 -7 7 -7 0 -10 -3 -7 -7z"/>
 <path d="M725 1010 c-16 -7 -17 -9 -3 -9 9 -1 20 4 23 9 7 11 7 11 -20 0z"/>
 <path d="M1215 1000 c-3 -6 1 -7 9 -4 18 7 21 14 7 14 -6 0 -13 -4 -16 -10z"/>
 <path d="M1250 995 c-14 -8 -20 -14 -14 -15 5 0 19 7 30 15 24 18 16 19 -16 0z"/>
 <path d="M753 993 c4 -3 10 -3 14 0 3 4 0 7 -7 7 -7 0 -10 -3 -7 -7z"/>
 <path d="M1063 913 c4 -3 10 -3 14 0 3 4 0 7 -7 7 -7 0 -10 -3 -7 -7z"/>
 <path d="M1806 1248 c3 -5 10 -6 15 -3 13 9 11 12 -6 12 -8 0 -12 -4 -9 -9z"/>
 </g>
<g id="layer105" fill="#177ba5" stroke="none">
 <path d="M0 825 l0 -825 1000 0 1000 0 0 825 0 825 -1000 0 -1000 0 0 -825z m440 569 l0 -65 -102 3 -103 3 -5 57 c-3 32 -4 61 -3 65 2 4 50 7 108 5 l105 -3 0 -65z m338 6 l-3 -65 -110 0 -110 0 -3 54 c-2 29 -1 59 1 65 3 7 43 11 116 11 l112 0 -3 -65z m998 -6 l1 -64 -109 0 -108 0 0 65 0 64 103 3 c56 2 104 2 107 0 3 -2 5 -33 6 -68z m-666 1 l0 -65 -109 0 -108 0 1 65 1 65 108 0 107 0 0 -65z m335 0 l0 -60 -110 0 -110 0 -3 49 c-5 78 -7 77 115 74 l108 -3 0 -60z m-565 -114 c0 -11 5 -23 10 -26 6 -4 10 -16 8 -28 -2 -14 2 -21 11 -19 7 1 19 -2 26 -8 25 -20 94 -20 128 0 17 10 35 16 40 13 6 -3 7 -1 3 6 -4 6 -2 27 5 46 12 31 17 35 50 35 32 0 40 -5 53 -32 20 -39 20 -44 -1 -27 -14 12 -14 10 1 -13 20 -31 29 -36 20 -13 -9 23 10 18 35 -9 27 -29 83 -30 125 -3 15 10 32 15 38 11 6 -4 9 -3 5 2 -3 5 1 24 8 42 13 29 18 32 58 32 40 0 46 -3 57 -30 10 -23 10 -33 1 -44 -10 -12 -9 -14 6 -12 24 4 73 -13 73 -26 0 -5 6 -6 13 -1 6 4 26 8 42 9 25 2 20 -3 -29 -26 -33 -16 -63 -27 -67 -24 -4 2 -11 -1 -14 -7 -4 -5 -14 -8 -22 -5 -8 3 -11 1 -8 -4 3 -6 4 -10 1 -10 -2 0 -12 -3 -20 -6 -13 -5 -15 -2 -10 12 4 11 4 16 0 12 -4 -3 -9 -14 -10 -25 -2 -11 -11 -18 -24 -17 -12 0 -19 -3 -16 -8 3 -4 -3 -11 -13 -14 -10 -3 -31 -11 -48 -18 -70 -31 -87 -36 -97 -30 -6 4 -8 3 -5 -3 6 -9 -5 -15 -118 -67 -33 -15 -91 -42 -129 -62 l-68 -34 -58 32 c-33 18 -57 35 -54 40 3 4 -2 5 -10 2 -18 -7 -59 14 -51 26 3 4 -5 6 -17 2 -16 -4 -19 -2 -13 8 5 8 4 11 -3 6 -10 -6 -35 2 -90 27 -12 6 -18 13 -12 17 5 3 -6 6 -25 7 -19 1 -56 13 -81 28 -26 15 -59 31 -73 35 -14 4 -25 13 -23 19 1 7 -2 10 -7 6 -6 -3 -43 10 -83 30 -40 19 -77 35 -83 35 -5 0 -37 13 -70 29 -82 39 -135 63 -170 77 -27 11 -21 13 58 13 55 1 86 -3 82 -9 -10 -16 14 -49 53 -73 51 -32 110 -27 155 11 16 15 17 14 11 -4 -4 -10 -4 -16 1 -12 7 7 10 23 14 71 2 27 87 25 96 -3 4 -11 20 -35 36 -52 26 -30 35 -33 89 -33 41 0 61 4 65 13 3 7 9 10 15 7 6 -3 7 1 4 9 -6 16 10 23 19 9 2 -5 2 -2 0 6 -2 8 2 27 9 42 11 25 18 29 55 29 36 0 43 -3 43 -19z m1050 -3 c-14 -5 -47 -20 -75 -33 -27 -13 -63 -29 -80 -36 -16 -8 -34 -15 -39 -18 -6 -2 4 13 22 35 18 21 32 44 32 51 0 10 22 13 83 12 66 0 77 -2 57 -11z"/>
 <path d="M413 1443 c4 -3 10 -3 14 0 3 4 0 7 -7 7 -7 0 -10 -3 -7 -7z"/>
 <path d="M1243 1443 c4 -3 10 -3 14 0 3 4 0 7 -7 7 -7 0 -10 -3 -7 -7z"/>
 <path d="M910 1186 c0 -2 7 -7 16 -10 8 -3 12 -2 9 4 -6 10 -25 14 -25 6z"/>
 <path d="M1063 1173 c4 -3 10 -3 14 0 3 4 0 7 -7 7 -7 0 -10 -3 -7 -7z"/>
 <path d="M628 1163 c6 -2 18 -2 25 0 6 3 1 5 -13 5 -14 0 -19 -2 -12 -5z"/>
 <path d="M993 1163 c4 -3 10 -3 14 0 3 4 0 7 -7 7 -7 0 -10 -3 -7 -7z"/>
 <path d="M1373 1163 c4 -3 10 -3 14 0 3 4 0 7 -7 7 -7 0 -10 -3 -7 -7z"/>
 <path d="M1605 1163 c-31 -7 -40 -21 -11 -16 15 3 29 9 32 14 3 5 4 8 2 8 -2 -1 -12 -3 -23 -6z"/>
 <path d="M683 1133 c4 -3 10 -3 14 0 3 4 0 7 -7 7 -7 0 -10 -3 -7 -7z"/>
 <path d="M555 1080 c3 -5 8 -10 11 -10 3 0 2 5 -1 10 -3 6 -8 10 -11 10 -3 0 -2 -4 1 -10z"/>
 <path d="M725 1010 c-16 -7 -17 -9 -3 -9 9 -1 20 4 23 9 7 11 7 11 -20 0z"/>
 <path d="M1215 1000 c-3 -6 1 -7 9 -4 18 7 21 14 7 14 -6 0 -13 -4 -16 -10z"/>
 <path d="M1250 995 c-14 -8 -20 -14 -14 -15 5 0 19 7 30 15 24 18 16 19 -16 0z"/>
 <path d="M753 993 c4 -3 10 -3 14 0 3 4 0 7 -7 7 -7 0 -10 -3 -7 -7z"/>
 <path d="M847 939 c7 -7 15 -10 18 -7 3 3 -2 9 -12 12 -14 6 -15 5 -6 -5z"/>
 <path d="M1063 913 c4 -3 10 -3 14 0 3 4 0 7 -7 7 -7 0 -10 -3 -7 -7z"/>
 <path d="M1806 1248 c3 -5 10 -6 15 -3 13 9 11 12 -6 12 -8 0 -12 -4 -9 -9z"/>
 </g>
<g id="layer106" fill="#5c6387" stroke="none">
 <path d="M0 825 l0 -825 1000 0 1000 0 0 825 0 825 -1000 0 -1000 0 0 -825z m975 784 c-49 -5 -114 -13 -144 -19 -61 -11 -107 -13 -98 -4 3 3 21 7 39 9 69 7 98 11 102 16 3 3 47 5 98 6 l93 1 -90 -9z m155 1 c11 -7 7 -10 -18 -10 -20 0 -31 4 -27 10 8 13 26 13 45 0z m109 -16 c40 -4 55 -14 20 -14 -46 0 -99 13 -93 22 3 5 13 6 23 2 9 -4 31 -8 50 -10z m-529 -20 c0 -2 -12 -4 -27 -4 -21 0 -24 3 -14 9 13 8 41 5 41 -5z m658 0 c9 3 24 1 32 -4 11 -7 8 -11 -15 -20 -31 -12 -60 -6 -50 10 4 6 -6 10 -22 10 -21 0 -24 3 -14 9 9 6 22 6 33 0 10 -6 26 -8 36 -5z m-732 -4 c5 -5 38 -13 73 -16 46 -5 59 -10 47 -16 -10 -6 -29 -5 -50 2 -18 6 -40 8 -48 5 -8 -3 -28 -1 -43 5 -23 9 -26 13 -15 20 19 12 24 12 36 0z m651 -32 c-20 -7 -35 -7 -50 0 -18 9 -14 11 28 11 46 -1 48 -1 22 -11z m-389 -5 c29 -3 48 -9 41 -13 -6 -4 -27 -3 -46 2 -19 5 -41 7 -49 4 -8 -3 -24 -1 -36 4 -21 8 -21 9 7 9 17 1 54 -2 83 -6z m297 -3 c-27 -12 -35 -12 -35 0 0 6 12 10 28 9 24 0 25 -1 7 -9z m-93 -11 c-15 -6 -30 -5 -40 1 -13 7 -8 9 23 9 35 0 37 -1 17 -10z m-89 -6 c-7 -2 -19 -2 -25 0 -7 3 -2 5 12 5 14 0 19 -2 13 -5z m-573 -119 l0 -65 -102 3 -103 3 -5 57 c-3 32 -4 61 -3 65 2 4 50 7 108 5 l105 -3 0 -65z m338 6 l-3 -65 -110 0 -110 0 -3 54 c-2 29 -1 59 1 65 3 7 43 11 116 11 l112 0 -3 -65z m998 -6 l1 -64 -109 0 -108 0 0 65 0 64 103 3 c56 2 104 2 107 0 3 -2 5 -33 6 -68z m-666 1 l0 -65 -109 0 -108 0 1 65 1 65 108 0 107 0 0 -65z m335 0 l0 -60 -110 0 -110 0 -3 49 c-5 78 -7 77 115 74 l108 -3 0 -60z m-565 -114 c0 -11 5 -23 10 -26 6 -4 10 -16 8 -28 -2 -14 2 -21 11 -19 7 1 19 -2 26 -8 25 -20 94 -20 128 0 17 10 35 16 40 13 6 -3 7 -1 3 6 -4 6 -2 27 5 46 12 31 17 35 50 35 32 0 40 -5 53 -32 20 -39 20 -44 -1 -27 -14 12 -14 10 1 -13 20 -31 29 -36 20 -13 -9 23 10 18 35 -9 27 -29 83 -30 125 -3 15 10 32 15 38 11 6 -4 9 -3 5 2 -3 5 1 24 8 42 13 29 18 32 58 32 40 0 46 -3 57 -30 10 -23 10 -33 1 -44 -10 -12 -9 -14 6 -12 24 4 73 -13 73 -26 0 -5 6 -6 13 -1 6 4 26 8 42 9 25 2 20 -3 -29 -26 -33 -16 -63 -27 -67 -24 -4 2 -11 -1 -14 -7 -4 -5 -14 -8 -22 -5 -8 3 -11 1 -8 -4 3 -6 4 -10 1 -10 -2 0 -12 -3 -20 -6 -13 -5 -15 -2 -10 12 4 11 4 16 0 12 -4 -3 -9 -14 -10 -25 -2 -11 -11 -18 -24 -17 -12 0 -19 -3 -16 -8 3 -4 -3 -11 -13 -14 -10 -3 -31 -11 -48 -18 -70 -31 -87 -36 -97 -30 -6 4 -8 3 -5 -3 6 -9 -5 -15 -118 -67 -33 -15 -91 -42 -129 -62 l-68 -34 -58 32 c-33 18 -57 35 -54 40 3 4 -2 5 -10 2 -18 -7 -59 14 -51 26 3 4 -5 6 -17 2 -16 -4 -19 -2 -13 8 5 8 4 11 -3 6 -10 -6 -35 2 -90 27 -12 6 -18 13 -12 17 5 3 -6 6 -25 7 -19 1 -56 13 -81 28 -26 15 -59 31 -73 35 -14 4 -25 13 -23 19 1 7 -2 10 -7 6 -6 -3 -43 10 -83 30 -40 19 -77 35 -83 35 -5 0 -37 13 -70 29 -82 39 -135 63 -170 77 -27 11 -21 13 58 13 55 1 86 -3 82 -9 -10 -16 14 -49 53 -73 51 -32 110 -27 155 11 16 15 17 14 11 -4 -4 -10 -4 -16 1 -12 7 7 10 23 14 71 2 27 87 25 96 -3 4 -11 20 -35 36 -52 26 -30 35 -33 89 -33 41 0 61 4 65 13 3 7 9 10 15 7 6 -3 7 1 4 9 -6 16 10 23 19 9 2 -5 2 -2 0 6 -2 8 2 27 9 42 11 25 18 29 55 29 36 0 43 -3 43 -19z m1050 -3 c-14 -5 -47 -20 -75 -33 -27 -13 -63 -29 -80 -36 -16 -8 -34 -15 -39 -18 -6 -2 4 13 22 35 18 21 32 44 32 51 0 10 22 13 83 12 66 0 77 -2 57 -11z"/>
 <path d="M413 1443 c4 -3 10 -3 14 0 3 4 0 7 -7 7 -7 0 -10 -3 -7 -7z"/>
 <path d="M1243 1443 c4 -3 10 -3 14 0 3 4 0 7 -7 7 -7 0 -10 -3 -7 -7z"/>
 <path d="M910 1186 c0 -2 7 -7 16 -10 8 -3 12 -2 9 4 -6 10 -25 14 -25 6z"/>
 <path d="M1063 1173 c4 -3 10 -3 14 0 3 4 0 7 -7 7 -7 0 -10 -3 -7 -7z"/>
 <path d="M628 1163 c6 -2 18 -2 25 0 6 3 1 5 -13 5 -14 0 -19 -2 -12 -5z"/>
 <path d="M993 1163 c4 -3 10 -3 14 0 3 4 0 7 -7 7 -7 0 -10 -3 -7 -7z"/>
 <path d="M1373 1163 c4 -3 10 -3 14 0 3 4 0 7 -7 7 -7 0 -10 -3 -7 -7z"/>
 <path d="M1605 1163 c-31 -7 -40 -21 -11 -16 15 3 29 9 32 14 3 5 4 8 2 8 -2 -1 -12 -3 -23 -6z"/>
 <path d="M683 1133 c4 -3 10 -3 14 0 3 4 0 7 -7 7 -7 0 -10 -3 -7 -7z"/>
 <path d="M555 1080 c3 -5 8 -10 11 -10 3 0 2 5 -1 10 -3 6 -8 10 -11 10 -3 0 -2 -4 1 -10z"/>
 <path d="M725 1010 c-16 -7 -17 -9 -3 -9 9 -1 20 4 23 9 7 11 7 11 -20 0z"/>
 <path d="M1215 1000 c-3 -6 1 -7 9 -4 18 7 21 14 7 14 -6 0 -13 -4 -16 -10z"/>
 <path d="M1250 995 c-14 -8 -20 -14 -14 -15 5 0 19 7 30 15 24 18 16 19 -16 0z"/>
 <path d="M753 993 c4 -3 10 -3 14 0 3 4 0 7 -7 7 -7 0 -10 -3 -7 -7z"/>
 <path d="M847 939 c7 -7 15 -10 18 -7 3 3 -2 9 -12 12 -14 6 -15 5 -6 -5z"/>
 <path d="M1063 913 c4 -3 10 -3 14 0 3 4 0 7 -7 7 -7 0 -10 -3 -7 -7z"/>
 <path d="M1806 1248 c3 -5 10 -6 15 -3 13 9 11 12 -6 12 -8 0 -12 -4 -9 -9z"/>
 </g>
<g id="layer107" fill="#0887bd" stroke="none">
 <path d="M0 825 l0 -825 1000 0 1000 0 0 825 0 825 -1000 0 -1000 0 0 -825z m975 784 c-49 -5 -114 -13 -144 -19 -61 -11 -107 -13 -98 -4 3 3 21 7 39 9 69 7 98 11 102 16 3 3 47 5 98 6 l93 1 -90 -9z m155 1 c11 -7 7 -10 -18 -10 -20 0 -31 4 -27 10 8 13 26 13 45 0z m109 -16 c40 -4 55 -14 20 -14 -46 0 -99 13 -93 22 3 5 13 6 23 2 9 -4 31 -8 50 -10z m-529 -20 c0 -2 -12 -4 -27 -4 -21 0 -24 3 -14 9 13 8 41 5 41 -5z m658 0 c9 3 24 1 32 -4 11 -7 8 -11 -15 -20 -31 -12 -60 -6 -50 10 4 6 -6 10 -22 10 -21 0 -24 3 -14 9 9 6 22 6 33 0 10 -6 26 -8 36 -5z m-732 -4 c5 -5 38 -13 73 -16 46 -5 59 -10 47 -16 -10 -6 -29 -5 -50 2 -18 6 -40 8 -48 5 -8 -3 -28 -1 -43 5 -23 9 -26 13 -15 20 19 12 24 12 36 0z m651 -32 c-20 -7 -35 -7 -50 0 -18 9 -14 11 28 11 46 -1 48 -1 22 -11z m-389 -5 c29 -3 48 -9 41 -13 -6 -4 -27 -3 -46 2 -19 5 -41 7 -49 4 -8 -3 -24 -1 -36 4 -21 8 -21 9 7 9 17 1 54 -2 83 -6z m297 -3 c-27 -12 -35 -12 -35 0 0 6 12 10 28 9 24 0 25 -1 7 -9z m-93 -11 c-15 -6 -30 -5 -40 1 -13 7 -8 9 23 9 35 0 37 -1 17 -10z m-89 -6 c-7 -2 -19 -2 -25 0 -7 3 -2 5 12 5 14 0 19 -2 13 -5z m-573 -113 l0 -70 -110 0 -110 0 0 70 0 70 110 0 110 0 0 -70z m338 3 l-3 -68 -110 0 -110 0 -3 54 c-5 83 -7 81 118 81 l111 0 -3 -67z m332 -3 l0 -70 -110 0 -110 0 0 70 0 70 110 0 110 0 0 -70z m338 3 l-3 -68 -110 0 -110 0 -3 68 -3 67 116 0 116 0 -3 -67z m332 -3 l0 -70 -110 0 -110 0 0 70 0 70 110 0 110 0 0 -70z m-890 -135 c17 -50 53 -75 110 -75 57 0 93 25 111 75 12 33 16 35 56 35 39 0 44 -3 57 -33 20 -50 60 -77 113 -77 38 0 50 5 79 34 19 19 34 41 34 50 0 12 11 16 49 16 45 0 50 -2 61 -30 38 -92 178 -94 216 -4 l14 34 82 0 c45 0 79 -2 77 -4 -2 -2 -74 -36 -159 -74 -85 -38 -298 -135 -472 -215 l-317 -145 -313 143 c-172 78 -387 177 -478 219 l-165 76 88 0 c76 0 87 -2 87 -17 0 -10 8 -28 18 -39 56 -70 168 -56 202 26 11 28 16 30 61 30 44 0 49 -3 55 -25 10 -40 59 -75 104 -75 58 0 87 18 111 67 20 41 23 43 64 43 41 0 44 -2 55 -35z"/>
 </g>
<g id="layer108" fill="#0a80c6" stroke="none">
 <path d="M0 825 l0 -825 1000 0 1000 0 0 825 0 825 -1000 0 -1000 0 0 -825z m1160 780 c19 -3 49 -7 65 -10 75 -12 112 -17 142 -19 45 -3 51 -13 18 -26 -20 -8 -37 -8 -58 0 -37 13 -47 13 -27 0 16 -10 16 -11 -60 -16 -19 -1 -60 -5 -90 -8 -119 -14 -352 -5 -358 13 -2 7 -12 7 -29 0 -17 -6 -37 -6 -58 1 -18 6 -39 8 -47 5 -17 -7 -74 13 -64 22 3 4 21 8 39 9 30 3 47 5 137 17 19 3 49 7 67 9 18 2 35 7 38 10 7 7 232 2 285 -7z m-720 -205 l0 -70 -110 0 -110 0 0 70 0 70 110 0 110 0 0 -70z m338 3 l-3 -68 -110 0 -110 0 -3 54 c-5 83 -7 81 118 81 l111 0 -3 -67z m332 -3 l0 -70 -110 0 -110 0 0 70 0 70 110 0 110 0 0 -70z m338 3 l-3 -68 -110 0 -110 0 -3 68 -3 67 116 0 116 0 -3 -67z m332 -3 l0 -70 -110 0 -110 0 0 70 0 70 110 0 110 0 0 -70z m-890 -135 c17 -50 53 -75 110 -75 57 0 93 25 111 75 12 33 16 35 56 35 39 0 44 -3 57 -33 20 -50 60 -77 113 -77 38 0 50 5 79 34 19 19 34 41 34 50 0 12 11 16 49 16 45 0 50 -2 61 -30 38 -92 178 -94 216 -4 l14 34 82 0 c45 0 79 -2 77 -4 -2 -2 -74 -36 -159 -74 -85 -38 -298 -135 -472 -215 l-317 -145 -313 143 c-172 78 -387 177 -478 219 l-165 76 88 0 c76 0 87 -2 87 -17 0 -10 8 -28 18 -39 56 -70 168 -56 202 26 11 28 16 30 61 30 44 0 49 -3 55 -25 10 -40 59 -75 104 -75 58 0 87 18 111 67 20 41 23 43 64 43 41 0 44 -2 55 -35z"/>
 <path d="M1090 1590 c19 -13 30 -13 30 0 0 6 -10 10 -22 10 -19 0 -20 -2 -8 -10z"/>
 <path d="M925 1570 c3 -5 27 -10 53 -10 34 0 43 3 32 10 -20 13 -93 13 -85 0z"/>
 <path d="M773 1563 c4 -3 10 -3 14 0 3 4 0 7 -7 7 -7 0 -10 -3 -7 -7z"/>
 <path d="M800 1550 c0 -7 3 -10 7 -7 3 4 3 10 0 14 -4 3 -7 0 -7 -7z"/>
 <path d="M1088 1533 c7 -3 16 -2 19 1 4 3 -2 6 -13 5 -11 0 -14 -3 -6 -6z"/>
 </g>
<g id="layer109" fill="#3288a7" stroke="none">
 <path d="M0 825 l0 -825 1000 0 1000 0 0 825 0 825 -1000 0 -1000 0 0 -825z m1160 780 c19 -3 49 -7 65 -10 76 -12 112 -17 138 -20 15 -1 32 -3 39 -4 29 -3 -14 -24 -54 -27 -54 -4 -138 -12 -203 -19 -66 -7 -217 -7 -285 0 -70 7 -131 13 -198 18 -30 3 -59 10 -65 16 -8 8 -8 11 1 12 48 5 71 8 102 12 79 12 107 16 137 19 18 2 35 7 38 10 7 7 232 2 285 -7z m-720 -205 l0 -70 -110 0 -110 0 0 70 0 70 110 0 110 0 0 -70z m338 3 l-3 -68 -110 0 -110 0 -3 54 c-5 83 -7 81 118 81 l111 0 -3 -67z m332 -3 l0 -70 -110 0 -110 0 0 70 0 70 110 0 110 0 0 -70z m338 3 l-3 -68 -110 0 -110 0 -3 68 -3 67 116 0 116 0 -3 -67z m332 -3 l0 -70 -110 0 -110 0 0 70 0 70 110 0 110 0 0 -70z m-890 -135 c17 -50 53 -75 110 -75 57 0 93 25 111 75 12 33 16 35 56 35 39 0 44 -3 57 -33 20 -50 60 -77 113 -77 38 0 50 5 79 34 19 19 34 41 34 50 0 12 11 16 49 16 45 0 50 -2 61 -30 38 -92 178 -94 216 -4 l14 34 82 0 c45 0 79 -2 77 -4 -2 -2 -74 -36 -159 -74 -85 -38 -298 -135 -472 -215 l-317 -145 -313 143 c-172 78 -387 177 -478 219 l-165 76 88 0 c76 0 87 -2 87 -17 0 -10 8 -28 18 -39 56 -70 168 -56 202 26 11 28 16 30 61 30 44 0 49 -3 55 -25 10 -40 59 -75 104 -75 58 0 87 18 111 67 20 41 23 43 64 43 41 0 44 -2 55 -35z"/>
 </g>
<g id="layer110" fill="#bd7c53" stroke="none">
 <path d="M0 825 l0 -825 1000 0 1000 0 0 825 0 825 -1000 0 -1000 0 0 -825z m1268 768 c100 -15 182 -30 182 -33 0 -4 -100 -17 -222 -30 l-222 -23 -226 22 c-124 13 -227 25 -229 27 -9 8 9 12 169 36 222 34 325 34 548 1z m-828 -193 l0 -70 -110 0 -110 0 0 70 0 70 110 0 110 0 0 -70z m338 3 l-3 -68 -110 0 -110 0 -3 54 c-5 83 -7 81 118 81 l111 0 -3 -67z m332 -3 l0 -70 -110 0 -110 0 0 70 0 70 110 0 110 0 0 -70z m338 3 l-3 -68 -110 0 -110 0 -3 68 -3 67 116 0 116 0 -3 -67z m332 -3 l0 -70 -110 0 -110 0 0 70 0 70 110 0 110 0 0 -70z m-890 -135 c17 -50 53 -75 110 -75 57 0 93 25 111 75 12 33 16 35 56 35 39 0 44 -3 57 -33 20 -50 60 -77 113 -77 38 0 50 5 79 34 19 19 34 41 34 50 0 12 11 16 49 16 45 0 50 -2 61 -30 38 -92 178 -94 216 -4 l14 34 82 0 c45 0 79 -2 77 -4 -2 -2 -74 -36 -159 -74 -85 -38 -298 -135 -472 -215 l-317 -145 -313 143 c-172 78 -387 177 -478 219 l-165 76 88 0 c76 0 87 -2 87 -17 0 -10 8 -28 18 -39 56 -70 168 -56 202 26 11 28 16 30 61 30 44 0 49 -3 55 -25 10 -40 59 -75 104 -75 58 0 87 18 111 67 20 41 23 43 64 43 41 0 44 -2 55 -35z"/>
 </g>
<g id="layer111" fill="#dc7c3d" stroke="none">
 <path d="M0 825 l0 -825 1000 0 1000 0 0 825 0 825 -1000 0 -1000 0 0 -825z m1268 768 c100 -15 182 -30 182 -33 0 -4 -100 -17 -222 -30 l-222 -23 -226 22 c-124 13 -227 25 -229 27 -9 8 9 12 169 36 222 34 325 34 548 1z m-828 -193 l0 -70 -110 0 -110 0 0 70 0 70 110 0 110 0 0 -70z m338 3 l-3 -68 -110 0 -110 0 -3 54 c-5 83 -7 81 118 81 l111 0 -3 -67z m332 -3 l0 -70 -110 0 -110 0 0 70 0 70 110 0 110 0 0 -70z m338 3 l-3 -68 -110 0 -110 0 -3 68 -3 67 116 0 116 0 -3 -67z m332 -3 l0 -70 -110 0 -110 0 0 70 0 70 110 0 110 0 0 -70z m-890 -135 c17 -50 53 -75 110 -75 57 0 93 25 111 75 12 33 16 35 56 35 39 0 44 -3 57 -33 20 -50 60 -77 113 -77 38 0 50 5 79 34 19 19 34 41 34 50 0 12 11 16 49 16 45 0 50 -2 61 -30 38 -92 178 -94 216 -4 l14 34 82 0 c45 0 79 -2 77 -4 -2 -2 -74 -36 -159 -74 -85 -38 -298 -135 -472 -215 l-317 -145 -313 143 c-172 78 -387 177 -478 219 l-165 76 88 0 c76 0 87 -2 87 -17 0 -10 8 -28 18 -39 56 -70 168 -56 202 26 11 28 16 30 61 30 44 0 49 -3 55 -25 10 -40 59 -75 104 -75 58 0 87 18 111 67 20 41 23 43 64 43 41 0 44 -2 55 -35z m-715 -185 c3 -5 1 -10 -4 -10 -6 0 -11 5 -11 10 0 6 2 10 4 10 3 0 8 -4 11 -10z m30 -30 c3 -5 4 -10 1 -10 -3 0 -8 5 -11 10 -3 6 -4 10 -1 10 3 0 8 -4 11 -10z m1555 -44 c0 -3 -5 -8 -12 -12 -7 -4 -8 -3 -4 4 7 12 16 16 16 8z m-195 -186 c3 -5 4 -10 1 -10 -3 0 -8 5 -11 10 -3 6 -4 10 -1 10 3 0 8 -4 11 -10z m145 -420 c0 -5 -5 -10 -11 -10 -5 0 -7 5 -4 10 3 6 8 10 11 10 2 0 4 -4 4 -10z m-620 -54 c0 -3 -4 -8 -10 -11 -5 -3 -10 -1 -10 4 0 6 5 11 10 11 6 0 10 -2 10 -4z m410 -150 c0 -3 -5 -8 -12 -12 -7 -4 -8 -3 -4 4 7 12 16 16 16 8z m-83 -63 c-4 -3 -10 -3 -14 0 -3 4 0 7 7 7 7 0 10 -3 7 -7z"/>
 </g>
<g id="layer112" fill="#d57d4b" stroke="none">
 <path d="M0 825 l0 -825 1000 0 1000 0 0 825 0 825 -1000 0 -1000 0 0 -825z m1268 768 c100 -15 182 -30 182 -33 0 -4 -100 -17 -222 -30 l-222 -23 -226 22 c-124 13 -227 25 -229 27 -9 8 9 12 169 36 222 34 325 34 548 1z m-828 -193 l0 -70 -110 0 -110 0 0 70 0 70 110 0 110 0 0 -70z m338 3 l-3 -68 -110 0 -110 0 -3 54 c-5 83 -7 81 118 81 l111 0 -3 -67z m332 -3 l0 -70 -110 0 -110 0 0 70 0 70 110 0 110 0 0 -70z m338 3 l-3 -68 -110 0 -110 0 -3 68 -3 67 116 0 116 0 -3 -67z m332 -3 l0 -70 -110 0 -110 0 0 70 0 70 110 0 110 0 0 -70z m-890 -135 c17 -50 53 -75 110 -75 57 0 93 25 111 75 12 33 16 35 56 35 39 0 44 -3 57 -33 20 -50 60 -77 113 -77 38 0 50 5 79 34 19 19 34 41 34 50 0 12 11 16 49 16 45 0 50 -2 61 -30 38 -92 178 -94 216 -4 l14 34 82 0 c45 0 79 -2 77 -4 -2 -2 -74 -36 -159 -74 -85 -38 -298 -135 -472 -215 l-317 -145 -313 143 c-172 78 -387 177 -478 219 l-165 76 88 0 c76 0 87 -2 87 -17 0 -10 8 -28 18 -39 56 -70 168 -56 202 26 11 28 16 30 61 30 44 0 49 -3 55 -25 10 -40 59 -75 104 -75 58 0 87 18 111 67 20 41 23 43 64 43 41 0 44 -2 55 -35z m-715 -185 c3 -5 1 -10 -4 -10 -6 0 -11 5 -11 10 0 6 2 10 4 10 3 0 8 -4 11 -10z m30 -30 c3 -5 4 -10 1 -10 -3 0 -8 5 -11 10 -3 6 -4 10 -1 10 3 0 8 -4 11 -10z m-28 -17 c-4 -3 -7 0 -7 7 0 7 3 10 7 7 3 -4 3 -10 0 -14z m38 -13 c3 -5 4 -10 1 -10 -3 0 -8 5 -11 10 -3 6 -4 10 -1 10 3 0 8 -4 11 -10z m1568 -8 c-10 -10 -24 -18 -32 -18 -7 -1 -3 7 10 17 31 24 44 24 22 1z m-1626 -34 c-3 -8 -6 -5 -6 6 -1 11 2 17 5 13 3 -3 4 -12 1 -19z m1683 7 c0 -8 -4 -15 -10 -15 -5 0 -7 7 -4 15 4 8 8 15 10 15 2 0 4 -7 4 -15z m-1550 -19 c0 -3 -5 -8 -12 -12 -7 -4 -8 -3 -4 4 7 12 16 16 16 8z m15 -26 c3 -5 1 -10 -4 -10 -6 0 -11 5 -11 10 0 6 2 10 4 10 3 0 8 -4 11 -10z m1415 6 c0 -3 -4 -8 -10 -11 -5 -3 -10 -1 -10 4 0 6 5 11 10 11 6 0 10 -2 10 -4z m-1390 -20 c0 -3 -5 -8 -12 -12 -7 -4 -8 -3 -4 4 7 12 16 16 16 8z m76 -88 l29 -33 -32 29 c-31 28 -38 36 -30 36 2 0 16 -15 33 -32z m1159 -18 c3 -5 4 -10 1 -10 -3 0 -8 5 -11 10 -3 6 -4 10 -1 10 3 0 8 -4 11 -10z m-5 -24 c0 -2 -8 -10 -17 -17 -16 -13 -17 -12 -4 4 13 16 21 21 21 13z m-1090 -16 c0 -5 -2 -10 -4 -10 -3 0 -8 5 -11 10 -3 6 -1 10 4 10 6 0 11 -4 11 -10z m-33 -17 c-4 -3 -7 0 -7 7 0 7 3 10 7 7 3 -4 3 -10 0 -14z m30 -20 c-4 -3 -7 0 -7 7 0 7 3 10 7 7 3 -4 3 -10 0 -14z m-290 -55 c-3 -8 -6 -5 -6 6 -1 11 2 17 5 13 3 -3 4 -12 1 -19z m368 12 c3 -5 4 -10 1 -10 -3 0 -8 5 -11 10 -3 6 -4 10 -1 10 3 0 8 -4 11 -10z m1282 -7 c-4 -3 -7 0 -7 7 0 7 3 10 7 7 3 -4 3 -10 0 -14z m-1627 -60 c-11 -17 -11 -17 -6 0 3 10 6 24 7 30 0 9 2 9 5 0 3 -7 0 -20 -6 -30z m1617 0 c-4 -3 -7 0 -7 7 0 7 3 10 7 7 3 -4 3 -10 0 -14z m-1092 -103 c3 -5 4 -10 1 -10 -3 0 -8 5 -11 10 -3 6 -4 10 -1 10 3 0 8 -4 11 -10z m-467 -40 c7 -11 11 -20 9 -20 -2 0 -12 9 -22 20 -10 11 -14 20 -9 20 5 0 15 -9 22 -20z m19 -47 c-4 -3 -7 0 -7 7 0 7 3 10 7 7 3 -4 3 -10 0 -14z m37 -29 c3 -8 2 -12 -4 -9 -6 3 -10 10 -10 16 0 14 7 11 14 -7z m1396 -15 c0 -5 -4 -9 -8 -9 -5 0 -9 7 -9 15 0 8 4 12 9 9 4 -3 8 -9 8 -15z m-1385 -19 c3 -5 4 -10 1 -10 -3 0 -8 5 -11 10 -3 6 -4 10 -1 10 3 0 8 -4 11 -10z m790 -20 c3 -5 4 -10 1 -10 -3 0 -8 5 -11 10 -3 6 -4 10 -1 10 3 0 8 -4 11 -10z m-25 -14 c0 -3 -4 -8 -10 -11 -5 -3 -10 -1 -10 4 0 6 5 11 10 11 6 0 10 -2 10 -4z m474 -74 c2 -4 -4 -9 -15 -9 -11 -1 -17 2 -14 8 7 11 22 12 29 1z m-567 -17 c0 -8 -4 -12 -9 -9 -5 3 -6 10 -3 15 9 13 12 11 12 -6z m503 -59 c0 -3 -5 -8 -12 -12 -7 -4 -8 -3 -4 4 7 12 16 16 16 8z m-83 -63 c-4 -3 -10 -3 -14 0 -3 4 0 7 7 7 7 0 10 -3 7 -7z m-622 -71 c-3 -3 -11 0 -18 7 -9 10 -8 11 6 5 10 -3 15 -9 12 -12z m462 11 c-4 -3 -10 -3 -14 0 -3 4 0 7 7 7 7 0 10 -3 7 -7z m-140 -10 c-4 -3 -10 -3 -14 0 -3 4 0 7 7 7 7 0 10 -3 7 -7z m100 0 c-4 -3 -10 -3 -14 0 -3 4 0 7 7 7 7 0 10 -3 7 -7z m-374 -10 c-7 -2 -19 -2 -25 0 -7 3 -2 5 12 5 14 0 19 -2 13 -5z m334 0 c-4 -3 -10 -3 -14 0 -3 4 0 7 7 7 7 0 10 -3 7 -7z m-64 -10 c-7 -2 -21 -2 -30 0 -10 3 -4 5 12 5 17 0 24 -2 18 -5z"/>
 </g>
<g id="layer113" fill="#ea833c" stroke="none">
 <path d="M0 825 l0 -825 1000 0 1000 0 0 825 0 825 -1000 0 -1000 0 0 -825z m1268 768 c100 -15 182 -30 182 -33 0 -4 -100 -17 -222 -30 l-222 -23 -226 22 c-124 13 -227 25 -229 27 -9 8 9 12 169 36 222 34 325 34 548 1z m-828 -193 l0 -70 -110 0 -110 0 0 70 0 70 110 0 110 0 0 -70z m338 3 l-3 -68 -110 0 -110 0 -3 54 c-5 83 -7 81 118 81 l111 0 -3 -67z m332 -3 l0 -70 -110 0 -110 0 0 70 0 70 110 0 110 0 0 -70z m338 3 l-3 -68 -110 0 -110 0 -3 68 -3 67 116 0 116 0 -3 -67z m332 -3 l0 -70 -110 0 -110 0 0 70 0 70 110 0 110 0 0 -70z m-890 -135 c17 -50 53 -75 110 -75 57 0 93 25 111 75 12 33 16 35 56 35 39 0 44 -3 57 -33 20 -50 60 -77 113 -77 38 0 50 5 79 34 19 19 34 41 34 50 0 12 11 16 49 16 45 0 50 -2 61 -30 38 -92 178 -94 216 -4 l14 34 82 0 c45 0 79 -2 77 -4 -2 -2 -74 -36 -159 -74 -85 -38 -298 -135 -472 -215 l-317 -145 -313 143 c-172 78 -387 177 -478 219 l-165 76 88 0 c76 0 87 -2 87 -17 0 -10 8 -28 18 -39 56 -70 168 -56 202 26 11 28 16 30 61 30 44 0 49 -3 55 -25 10 -40 59 -75 104 -75 58 0 87 18 111 67 20 41 23 43 64 43 41 0 44 -2 55 -35z m-694 -205 c5 0 14 -11 21 -25 14 -30 -2 -34 -18 -4 -9 17 -13 19 -20 8 -5 -8 -9 -9 -10 -4 0 6 -2 21 -5 35 -3 23 -3 23 10 8 7 -10 17 -18 22 -18z m1639 0 c3 -5 4 -10 1 -10 -3 0 -8 5 -11 10 -3 6 -4 10 -1 10 3 0 8 -4 11 -10z m-52 -47 c-10 -10 -26 -24 -35 -31 -14 -11 -16 -10 -11 7 3 12 11 21 18 21 7 0 18 7 25 15 7 9 15 13 17 11 3 -2 -4 -13 -14 -23z m-1626 -30 c-3 -10 -5 -4 -5 12 0 17 2 24 5 18 2 -7 2 -21 0 -30z m1690 7 c-17 -28 -29 -25 -15 5 6 13 15 22 19 19 5 -3 3 -14 -4 -24z m-1586 -7 c13 -17 13 -17 -6 -3 -11 8 -22 16 -24 17 -2 2 0 3 6 3 6 0 17 -8 24 -17z m29 -17 c0 -3 -5 -8 -12 -12 -7 -4 -8 -3 -4 4 7 12 16 16 16 8z m1427 -21 c-4 -8 -11 -15 -17 -15 -6 0 -6 7 2 20 14 22 24 19 15 -5z m-1377 -39 c0 -6 -5 -4 -10 4 -5 8 -10 11 -10 7 0 -9 -30 18 -30 28 0 3 11 -2 25 -11 14 -9 25 -21 25 -28z m1530 -21 c0 -16 -5 -37 -10 -45 -7 -11 -10 3 -10 45 0 42 3 56 10 45 5 -8 10 -28 10 -45z m-1723 3 c-3 -7 -5 -2 -5 12 0 14 2 19 5 13 2 -7 2 -19 0 -25z m1500 -5 c-4 -3 -10 -3 -14 0 -3 4 0 7 7 7 7 0 10 -3 7 -7z m-1195 -76 c49 -58 23 -48 -41 17 -35 35 -40 44 -23 39 12 -3 41 -28 64 -56z m1185 56 c-4 -3 -10 -3 -14 0 -3 4 0 7 7 7 7 0 10 -3 7 -7z m-30 -10 c-4 -3 -10 -3 -14 0 -3 4 0 7 7 7 7 0 10 -3 7 -7z m-42 -33 c3 -5 4 -10 1 -10 -3 0 -8 5 -11 10 -3 6 -4 10 -1 10 3 0 8 -4 11 -10z m-5 -24 c0 -2 -7 -9 -15 -16 -13 -11 -14 -10 -9 4 5 14 24 23 24 12z m292 -28 c-9 -9 -12 -7 -12 12 0 19 3 21 12 12 9 -9 9 -15 0 -24z m-1415 -5 c-4 -3 -7 0 -7 7 0 7 3 10 7 7 3 -4 3 -10 0 -14z m30 -20 c-4 -3 -7 0 -7 7 0 7 3 10 7 7 3 -4 3 -10 0 -14z m1016 -18 c-21 -16 -26 -14 -17 8 3 9 12 13 20 10 12 -4 11 -8 -3 -18z m-956 -2 c-4 -3 -10 -3 -14 0 -3 4 0 7 7 7 7 0 10 -3 7 -7z m-349 -44 c-3 -20 -5 -19 -9 9 -3 20 -2 29 4 23 5 -5 7 -19 5 -32z m1659 16 c-7 -13 -14 -20 -15 -14 -5 14 6 39 17 39 5 0 4 -11 -2 -25z m-1276 -2 c13 -15 12 -15 -8 -4 -24 12 -29 21 -14 21 5 0 15 -7 22 -17z m-357 -57 c-3 -15 -8 -25 -11 -23 -2 3 -1 17 3 31 3 15 8 25 11 23 2 -3 1 -17 -3 -31z m391 24 c3 -5 4 -10 1 -10 -3 0 -8 5 -11 10 -3 6 -4 10 -1 10 3 0 8 -4 11 -10z m830 0 c3 -5 4 -10 1 -10 -3 0 -8 5 -11 10 -3 6 -4 10 -1 10 3 0 8 -4 11 -10z m392 -40 c-1 -16 -7 -32 -13 -34 -9 -3 -9 5 -1 30 13 42 17 43 14 4z m-1200 3 c-4 -3 -7 0 -7 7 0 7 3 10 7 7 3 -4 3 -10 0 -14z m760 -10 c-4 -3 -7 0 -7 7 0 7 3 10 7 7 3 -4 3 -10 0 -14z m-722 -13 c10 -11 16 -20 13 -20 -3 0 -13 9 -23 20 -10 11 -16 20 -13 20 3 0 13 -9 23 -20z m654 -53 c-2 -1 -13 -9 -24 -17 -19 -14 -19 -14 -6 3 7 9 18 17 24 17 6 0 8 -1 6 -3z m-584 -17 c3 -5 4 -10 1 -10 -3 0 -8 5 -11 10 -3 6 -4 10 -1 10 3 0 8 -4 11 -10z m1055 6 c0 -3 -5 -8 -12 -12 -7 -4 -8 -3 -4 4 7 12 16 16 16 8z m-1501 -89 c6 -17 7 -25 1 -22 -6 4 -10 12 -10 18 0 7 -9 23 -20 37 -11 14 -20 30 -20 35 0 16 38 -37 49 -68z m941 13 c0 -5 -5 -10 -11 -10 -5 0 -7 5 -4 10 3 6 8 10 11 10 2 0 4 -4 4 -10z m-423 -7 c-4 -3 -10 -3 -14 0 -3 4 0 7 7 7 7 0 10 -3 7 -7z m383 -17 c0 -3 -5 -8 -12 -12 -7 -4 -8 -3 -4 4 7 12 16 16 16 8z m537 -13 c-4 -3 -7 0 -7 7 0 7 3 10 7 7 3 -4 3 -10 0 -14z m-1402 -24 c-3 -3 4 -14 15 -24 11 -10 20 -23 20 -28 0 -5 -13 5 -29 23 -16 19 -27 40 -24 48 5 11 7 11 14 1 4 -7 6 -16 4 -20z m536 14 c13 -17 13 -17 -6 -3 -11 8 -22 16 -24 17 -2 2 0 3 6 3 6 0 17 -8 24 -17z m859 -13 c0 -4 -7 -11 -16 -14 -13 -5 -14 -4 -6 7 7 8 8 18 4 22 -4 5 -1 5 6 1 6 -4 12 -11 12 -16z m-553 -7 c-4 -3 -7 0 -7 7 0 7 3 10 7 7 3 -4 3 -10 0 -14z m-217 -66 c0 -6 -13 2 -30 18 -16 16 -30 30 -30 33 0 2 14 -6 30 -18 17 -12 30 -26 30 -33z m175 33 c3 -5 4 -10 1 -10 -3 0 -8 5 -11 10 -3 6 -4 10 -1 10 3 0 8 -4 11 -10z m-25 -14 c0 -3 -4 -8 -10 -11 -5 -3 -10 -1 -10 4 0 6 5 11 10 11 6 0 10 -2 10 -4z m559 -13 c-27 -33 -59 -62 -59 -54 0 5 7 14 15 21 8 7 12 17 8 23 -3 5 -1 7 4 4 6 -4 16 0 23 8 7 8 15 15 17 15 3 0 -1 -8 -8 -17z m-1240 -57 c-2 -2 -13 8 -23 22 l-19 27 24 -22 c12 -12 21 -24 18 -27z m566 14 c3 -5 4 -10 1 -10 -3 0 -8 5 -11 10 -3 6 -4 10 -1 10 3 0 8 -4 11 -10z m594 -19 c9 -6 6 -8 -13 -8 -14 0 -23 3 -20 8 7 11 15 11 33 0z m-567 -8 c-6 -2 -9 -10 -6 -15 4 -7 2 -8 -5 -4 -13 9 -5 26 12 25 9 0 8 -2 -1 -6z m558 -17 c0 -2 -8 -10 -17 -17 -16 -13 -17 -12 -4 4 13 16 21 21 21 13z m-60 -50 c0 -3 -5 -8 -12 -12 -7 -4 -8 -3 -4 4 7 12 16 16 16 8z m-945 -26 c3 -6 -1 -7 -9 -4 -18 7 -21 14 -7 14 6 0 13 -4 16 -10z m909 -3 c-3 -8 -12 -14 -21 -14 -13 0 -13 2 3 14 22 16 25 16 18 0z m-854 -27 c0 -5 7 -10 16 -10 8 0 12 -4 9 -10 -10 -16 -23 -12 -35 10 -7 14 -7 20 0 20 5 0 10 -4 10 -10z m810 0 c0 -5 -8 -10 -17 -10 -15 0 -16 2 -3 10 19 12 20 12 20 0z m-723 -36 c-3 -3 -12 -4 -19 -1 -8 3 -5 6 6 6 11 1 17 -2 13 -5z m60 -31 c-4 -3 -10 -3 -14 0 -3 4 0 7 7 7 7 0 10 -3 7 -7z m43 -9 c0 -2 -7 -4 -15 -4 -8 0 -15 4 -15 10 0 5 7 7 15 4 8 -4 15 -8 15 -10z m467 10 c-3 -3 -12 -4 -19 -1 -8 3 -5 6 6 6 11 1 17 -2 13 -5z m-150 -11 c-4 -3 -10 -3 -14 0 -3 4 0 7 7 7 7 0 10 -3 7 -7z m113 3 c0 -11 -19 -15 -25 -6 -3 5 1 10 9 10 9 0 16 -2 16 -4z m-387 -13 c-7 -2 -19 -2 -25 0 -7 3 -2 5 12 5 14 0 19 -2 13 -5z m344 1 c-3 -3 -12 -4 -19 -1 -8 3 -5 6 6 6 11 1 17 -2 13 -5z m-287 -8 c0 -9 -30 -14 -35 -6 -4 6 3 10 14 10 12 0 21 -2 21 -4z m218 -3 c-10 -2 -26 -2 -35 0 -10 3 -2 5 17 5 19 0 27 -2 18 -5z m-145 -10 c-7 -2 -21 -2 -30 0 -10 3 -4 5 12 5 17 0 24 -2 18 -5z m44 1 c-3 -3 -12 -4 -19 -1 -8 3 -5 6 6 6 11 1 17 -2 13 -5z"/>
 </g>
<g id="layer114" fill="#d48553" stroke="none">
 <path d="M0 825 l0 -825 1000 0 1000 0 0 825 0 825 -1000 0 -1000 0 0 -825z m1268 768 c100 -15 182 -30 182 -33 0 -4 -100 -17 -222 -30 l-222 -23 -226 22 c-124 13 -227 25 -229 27 -9 8 9 12 169 36 222 34 325 34 548 1z m-828 -193 l0 -70 -110 0 -110 0 0 70 0 70 110 0 110 0 0 -70z m338 3 l-3 -68 -110 0 -110 0 -3 54 c-5 83 -7 81 118 81 l111 0 -3 -67z m332 -3 l0 -70 -110 0 -110 0 0 70 0 70 110 0 110 0 0 -70z m338 3 l-3 -68 -110 0 -110 0 -3 68 -3 67 116 0 116 0 -3 -67z m332 -3 l0 -70 -110 0 -110 0 0 70 0 70 110 0 110 0 0 -70z m-890 -135 c17 -50 53 -75 110 -75 57 0 93 25 111 75 12 33 16 35 56 35 39 0 44 -3 57 -33 20 -50 60 -77 113 -77 38 0 50 5 79 34 19 19 34 41 34 50 0 12 11 16 49 16 45 0 50 -2 61 -30 38 -92 178 -94 216 -4 l14 34 82 0 c45 0 79 -2 77 -4 -2 -2 -74 -36 -159 -74 -85 -38 -298 -135 -472 -215 l-317 -145 -313 143 c-172 78 -387 177 -478 219 l-165 76 88 0 c76 0 87 -2 87 -17 0 -10 8 -28 18 -39 56 -70 168 -56 202 26 11 28 16 30 61 30 44 0 49 -3 55 -25 10 -40 59 -75 104 -75 58 0 87 18 111 67 20 41 23 43 64 43 41 0 44 -2 55 -35z m-694 -205 c5 0 14 -11 21 -25 9 -20 8 -25 -3 -25 -8 0 -14 6 -14 14 0 8 -5 18 -12 22 -7 4 -8 3 -4 -4 4 -7 2 -12 -3 -12 -6 0 -11 3 -12 8 0 4 -2 18 -5 32 -3 23 -3 23 10 8 7 -10 17 -18 22 -18z m1639 0 c3 -5 4 -10 1 -10 -3 0 -8 5 -11 10 -3 6 -4 10 -1 10 3 0 8 -4 11 -10z m-55 -65 c-12 -23 -20 -32 -20 -21 0 15 -3 16 -14 7 -12 -10 -13 -8 -9 8 3 12 11 21 18 21 7 0 18 7 25 15 21 25 21 11 0 -30z m-1608 -6 c5 -3 2 -12 -7 -19 -13 -11 -15 -8 -14 21 0 19 3 27 6 19 3 -8 10 -18 15 -21z m5 14 c-4 -3 -7 0 -7 7 0 7 3 10 7 7 3 -4 3 -10 0 -14z m1670 -18 c-7 -14 -15 -25 -19 -25 -13 0 -9 30 5 44 18 21 27 9 14 -19z m-1577 -13 c14 -15 36 -34 50 -43 14 -9 21 -21 17 -25 -5 -5 -15 -1 -22 9 -12 17 -30 24 -64 26 -11 1 -11 4 0 17 11 14 10 18 -6 30 -10 8 -14 14 -9 14 5 0 21 -12 34 -28z m1447 -27 c-4 -8 -11 -15 -17 -15 -6 0 -6 7 2 20 14 22 24 19 15 -5z m-1490 -2 c-4 -3 -10 -3 -14 0 -3 4 0 7 7 7 7 0 10 -3 7 -7z m1643 -58 c0 -16 -5 -37 -10 -45 -7 -11 -10 3 -10 45 0 42 3 56 10 45 5 -8 10 -28 10 -45z m-1723 3 c-3 -7 -5 -2 -5 12 0 14 2 19 5 13 2 -7 2 -19 0 -25z m1507 -7 c3 -5 -1 -14 -8 -20 -10 -8 -16 -9 -21 -1 -3 5 2 10 12 10 15 0 16 2 3 10 -9 6 -10 10 -3 10 6 0 14 -4 17 -9z m-1437 -18 c-4 -3 -10 -3 -14 0 -3 4 0 7 7 7 7 0 10 -3 7 -7z m175 -2 c13 -5 41 -30 63 -56 22 -28 30 -43 19 -37 -10 6 -27 20 -36 31 -20 23 -48 27 -66 9 -6 -6 -15 -9 -19 -5 -3 4 2 14 13 22 19 15 19 15 0 30 -22 17 -9 20 26 6z m-52 -5 c0 -3 -4 -8 -10 -11 -5 -3 -10 -1 -10 4 0 6 5 11 10 11 6 0 10 -2 10 -4z m1267 -3 c-4 -3 -10 -3 -14 0 -3 4 0 7 7 7 7 0 10 -3 7 -7z m13 -19 c0 -8 -19 -13 -24 -6 -3 5 1 9 9 9 8 0 15 -2 15 -3z m-55 -14 c3 -5 4 -10 1 -10 -3 0 -8 5 -11 10 -3 6 -4 10 -1 10 3 0 8 -4 11 -10z m152 4 c-3 -3 -12 -4 -19 -1 -8 3 -5 6 6 6 11 1 17 -2 13 -5z m-163 -39 c-4 -8 -10 -15 -15 -15 -4 0 -6 7 -3 15 4 8 10 15 15 15 4 0 6 -7 3 -15z m298 -17 c-9 -9 -12 -7 -12 12 0 19 3 21 12 12 9 -9 9 -15 0 -24z m-1575 5 c-4 -3 -7 0 -7 7 0 7 3 10 7 7 3 -4 3 -10 0 -14z m168 -3 c3 -5 1 -10 -4 -10 -6 0 -11 5 -11 10 0 6 2 10 4 10 3 0 8 -4 11 -10z m-254 -22 c0 -7 2 -21 4 -30 2 -10 -1 -18 -6 -18 -5 0 -10 -10 -10 -22 -1 -18 -3 -16 -8 7 -8 35 -2 75 10 75 5 0 9 -6 10 -12z m284 2 c3 -5 1 -10 -4 -10 -6 0 -11 5 -11 10 0 6 2 10 4 10 3 0 8 -4 11 -10z m1008 -25 c-21 -16 -26 -14 -17 8 3 9 12 13 20 10 12 -4 11 -8 -3 -18z m-956 -2 c-4 -3 -10 -3 -14 0 -3 4 0 7 7 7 7 0 10 -3 7 -7z m1310 -28 c-7 -13 -14 -20 -15 -14 -5 14 6 39 17 39 5 0 4 -11 -2 -25z m-1279 3 c20 -20 14 -27 -13 -15 -14 7 -25 15 -25 20 0 11 25 8 38 -5z m-301 -40 c-3 -7 -5 -2 -5 12 0 14 2 19 5 13 2 -7 2 -19 0 -25z m-47 -42 c-15 -15 -22 -1 -14 30 l7 28 9 -24 c5 -14 5 -27 -2 -34z m388 29 c-3 -3 -9 2 -12 12 -6 14 -5 15 5 6 7 -7 10 -15 7 -18z m826 16 c3 -5 -1 -11 -9 -14 -9 -4 -12 -1 -8 9 6 16 10 17 17 5z m393 -41 c-1 -16 -7 -32 -14 -34 -9 -4 -10 2 -2 21 5 15 7 33 5 40 -3 8 -2 11 4 8 5 -3 8 -19 7 -35z m-1197 10 c0 -5 -5 -10 -11 -10 -5 0 -7 5 -4 10 3 6 8 10 11 10 2 0 4 -4 4 -10z m757 -17 c-4 -3 -7 0 -7 7 0 7 3 10 7 7 3 -4 3 -10 0 -14z m-718 -40 c-17 -20 -31 -16 -20 5 7 13 6 23 -2 33 -7 7 -2 5 10 -5 18 -15 20 -22 12 -33z m698 20 c-4 -3 -7 0 -7 7 0 7 3 10 7 7 3 -4 3 -10 0 -14z m-730 -10 c-4 -3 -10 -3 -14 0 -3 4 0 7 7 7 7 0 10 -3 7 -7z m-350 -50 c-4 -3 -7 0 -7 7 0 7 3 10 7 7 3 -4 3 -10 0 -14z m1032 14 c-2 -1 -13 -9 -24 -17 -19 -14 -19 -14 -6 3 7 9 18 17 24 17 6 0 8 -1 6 -3z m-584 -17 c3 -5 4 -10 1 -10 -3 0 -8 5 -11 10 -3 6 -4 10 -1 10 3 0 8 -4 11 -10z m1055 6 c0 -3 -5 -8 -12 -12 -7 -4 -8 -3 -4 4 7 12 16 16 16 8z m-1515 -57 c4 -11 10 -17 14 -15 4 3 8 -7 9 -20 1 -15 -2 -22 -8 -19 -6 3 -10 12 -10 18 0 7 -9 23 -20 37 -11 14 -20 29 -20 34 0 14 29 -14 35 -35z m1122 4 c-3 -3 -11 -2 -17 2 -9 6 -9 10 1 16 14 8 27 -7 16 -18z m-627 7 c0 -5 -2 -10 -4 -10 -3 0 -8 5 -11 10 -3 6 -1 10 4 10 6 0 11 -4 11 -10z m460 -30 c0 -5 -5 -10 -11 -10 -5 0 -7 5 -4 10 3 6 8 10 11 10 2 0 4 -4 4 -10z m-423 -7 c-4 -3 -10 -3 -14 0 -3 4 0 7 7 7 7 0 10 -3 7 -7z m383 -17 c0 -3 -5 -8 -12 -12 -7 -4 -8 -3 -4 4 7 12 16 16 16 8z m537 -13 c-4 -3 -7 0 -7 7 0 7 3 10 7 7 3 -4 3 -10 0 -14z m-1402 -24 c-3 -3 4 -14 15 -24 11 -10 20 -23 20 -28 0 -5 -13 5 -29 23 -16 19 -27 40 -24 48 5 11 7 11 14 1 4 -7 6 -16 4 -20z m534 17 c10 -12 8 -13 -8 -9 -15 4 -21 1 -21 -11 0 -16 -12 -21 -23 -9 -7 6 22 41 34 42 4 1 12 -5 18 -13z m861 -16 c0 -4 -7 -11 -16 -14 -13 -5 -14 -4 -6 7 7 8 8 18 4 22 -4 5 -1 5 6 1 6 -4 12 -11 12 -16z m-553 -7 c-4 -3 -7 0 -7 7 0 7 3 10 7 7 3 -4 3 -10 0 -14z m-217 -66 c0 -6 -13 2 -30 18 -16 16 -30 30 -30 33 0 2 14 -6 30 -18 17 -12 30 -26 30 -33z m708 44 c11 -7 11 -9 -1 -14 -16 -6 -27 0 -27 15 0 10 11 10 28 -1z m-533 -11 c3 -5 4 -10 1 -10 -3 0 -8 5 -11 10 -3 6 -4 10 -1 10 3 0 8 -4 11 -10z m50 0 c3 -5 4 -10 1 -10 -3 0 -8 5 -11 10 -3 6 -4 10 -1 10 3 0 8 -4 11 -10z m-75 -14 c0 -3 -4 -8 -10 -11 -5 -3 -10 -1 -10 4 0 6 5 11 10 11 6 0 10 -2 10 -4z m527 -18 c-1 -13 -8 -32 -14 -42 -10 -19 -11 -19 -17 2 -7 20 11 62 27 62 4 0 6 -10 4 -22z m31 2 c-7 -11 -17 -20 -22 -20 -5 0 -1 9 9 20 10 11 20 20 22 20 2 0 -2 -9 -9 -20z m-1239 -54 c-2 -2 -13 8 -23 22 l-19 27 24 -22 c12 -12 21 -24 18 -27z m676 34 c3 -5 -1 -10 -10 -10 -9 0 -13 5 -10 10 3 6 8 10 10 10 2 0 7 -4 10 -10z m-110 -20 c3 -5 4 -10 1 -10 -3 0 -8 5 -11 10 -3 6 -4 10 -1 10 3 0 8 -4 11 -10z m-495 -26 c0 -8 -4 -14 -10 -14 -5 0 -10 9 -10 21 0 11 5 17 10 14 6 -3 10 -13 10 -21z m1094 11 c3 -9 0 -15 -10 -15 -8 0 -13 -4 -10 -9 3 -5 -2 -15 -12 -22 -15 -13 -16 -12 -3 4 12 15 11 17 -13 17 -28 0 -33 9 -14 28 17 17 55 15 62 -3z m-559 -31 c0 -22 -30 -26 -31 -4 -1 22 6 32 19 27 7 -2 12 -12 12 -23z m85 -9 c0 -8 -4 -15 -10 -15 -5 0 -7 7 -4 15 4 8 8 15 10 15 2 0 4 -7 4 -15z m367 -12 c-4 -3 -10 -3 -14 0 -3 4 0 7 7 7 7 0 10 -3 7 -7z m33 -27 c0 -3 -5 -8 -12 -12 -7 -4 -8 -3 -4 4 7 12 16 16 16 8z m-945 -26 c3 -6 -1 -7 -9 -4 -18 7 -21 14 -7 14 6 0 13 -4 16 -10z m51 -7 c4 -10 6 -21 6 -25 -1 -5 6 -8 15 -8 14 0 15 -2 4 -12 -10 -11 -15 -9 -26 6 -8 10 -12 24 -8 29 4 6 0 8 -10 4 -11 -4 -17 -1 -17 8 0 21 26 19 36 -2z m414 7 c0 -5 -7 -10 -15 -10 -8 0 -15 5 -15 10 0 6 7 10 15 10 8 0 15 -4 15 -10z m444 -3 c-3 -8 -11 -14 -19 -14 -11 0 -12 4 -4 14 6 7 15 13 20 13 5 0 6 -6 3 -13z m-274 -17 c0 -5 -2 -10 -4 -10 -3 0 -8 5 -11 10 -3 6 -1 10 4 10 6 0 11 -4 11 -10z m107 -7 c-4 -3 -7 0 -7 7 0 7 3 10 7 7 3 -4 3 -10 0 -14z m123 -3 c0 -5 -8 -10 -17 -10 -15 0 -16 2 -3 10 19 12 20 12 20 0z m-660 -10 c0 -5 -13 -10 -30 -10 -16 0 -30 -4 -30 -10 0 -5 -7 -10 -17 -10 -14 0 -14 2 2 20 19 21 75 28 75 10z m200 0 c0 -12 -8 -12 -35 0 -18 8 -17 9 8 9 15 1 27 -3 27 -9z m420 -4 c0 -2 -7 -7 -16 -10 -8 -3 -12 -2 -9 4 6 10 25 14 25 6z m-163 -33 c-4 -3 -10 -3 -14 0 -3 4 0 7 7 7 7 0 10 -3 7 -7z m-460 -20 c-4 -3 -10 -3 -14 0 -3 4 0 7 7 7 7 0 10 -3 7 -7z m89 -20 c-7 -7 -76 8 -76 17 0 4 18 3 40 -2 23 -6 39 -13 36 -15z m409 20 c-11 -3 -25 -9 -32 -15 -7 -5 -13 -5 -17 1 -7 12 11 20 44 19 20 0 21 -1 5 -5z m-118 -10 c-9 -2 -15 -9 -12 -14 4 -5 -9 -8 -27 -8 -24 1 -27 3 -10 6 12 2 20 9 17 14 -4 5 6 8 22 8 17 -1 21 -3 10 -6z m50 -9 c-3 -3 -12 -4 -19 -1 -8 3 -5 6 6 6 11 1 17 -2 13 -5z m-287 -8 c0 -9 -30 -14 -35 -6 -4 6 3 10 14 10 12 0 21 -2 21 -4z m80 -6 c0 -5 -12 -10 -27 -9 l-28 1 25 8 c14 4 26 8 28 9 1 1 2 -3 2 -9z m37 -6 c-3 -3 -12 -4 -19 -1 -8 3 -5 6 6 6 11 1 17 -2 13 -5z"/>
 <path d="M993 253 c4 -3 10 -3 14 0 3 4 0 7 -7 7 -7 0 -10 -3 -7 -7z"/>
 </g>
<g id="layer115" fill="#ed7d41" stroke="none">
 <path d="M0 825 l0 -825 1000 0 1000 0 0 825 0 825 -1000 0 -1000 0 0 -825z m1268 768 c100 -15 182 -30 182 -33 0 -4 -100 -17 -222 -30 l-222 -23 -226 22 c-124 13 -227 25 -229 27 -9 8 9 12 169 36 222 34 325 34 548 1z m-828 -193 l0 -70 -110 0 -110 0 0 70 0 70 110 0 110 0 0 -70z m338 3 l-3 -68 -110 0 -110 0 -3 54 c-5 83 -7 81 118 81 l111 0 -3 -67z m332 -3 l0 -70 -110 0 -110 0 0 70 0 70 110 0 110 0 0 -70z m338 3 l-3 -68 -110 0 -110 0 -3 68 -3 67 116 0 116 0 -3 -67z m332 -3 l0 -70 -110 0 -110 0 0 70 0 70 110 0 110 0 0 -70z m-890 -135 c17 -50 53 -75 110 -75 57 0 93 25 111 75 12 33 16 35 56 35 39 0 44 -3 57 -33 20 -50 60 -77 113 -77 38 0 50 5 79 34 19 19 34 41 34 50 0 12 11 16 49 16 45 0 50 -2 61 -30 38 -92 178 -94 216 -4 l14 34 82 0 c45 0 79 -2 77 -4 -2 -2 -74 -36 -159 -74 -85 -38 -298 -135 -472 -215 l-317 -145 -313 143 c-172 78 -387 177 -478 219 l-165 76 88 0 c76 0 87 -2 87 -17 0 -10 8 -28 18 -39 56 -70 168 -56 202 26 11 28 16 30 61 30 44 0 49 -3 55 -25 10 -40 59 -75 104 -75 58 0 87 18 111 67 20 41 23 43 64 43 41 0 44 -2 55 -35z m-649 -241 c38 -37 66 -71 63 -76 -3 -5 0 -7 8 -6 7 2 12 -4 12 -13 -1 -9 4 -16 11 -15 13 1 196 -173 477 -451 106 -105 182 -173 192 -171 8 1 193 179 411 393 219 215 403 393 410 398 18 10 22 2 29 -68 4 -41 3 -54 -3 -40 -8 17 -10 18 -10 3 -1 -25 -21 -23 -21 2 0 11 5 20 10 20 13 0 13 47 1 55 -10 6 -45 -38 -60 -76 -8 -20 -10 -21 -10 -5 -1 15 -11 10 -47 -27 -25 -26 -51 -47 -56 -47 -6 0 -8 -7 -5 -15 6 -15 -9 -29 -32 -30 -8 0 -16 -6 -19 -14 -3 -9 0 -11 8 -6 8 5 11 4 6 -3 -4 -6 -13 -9 -20 -6 -8 3 -21 -7 -32 -25 -10 -17 -24 -31 -32 -31 -7 0 -10 -5 -7 -10 4 -6 3 -9 -2 -8 -12 4 -103 -83 -97 -93 3 -5 -7 -11 -21 -15 -14 -3 -25 -11 -25 -16 0 -13 -26 -38 -33 -31 -4 3 -14 -7 -23 -23 -9 -16 -36 -44 -60 -63 -24 -18 -44 -38 -44 -45 0 -6 -10 -16 -22 -21 -13 -6 -27 -20 -33 -33 -5 -12 -15 -22 -22 -22 -6 0 -14 -9 -18 -19 -3 -10 -15 -21 -27 -24 -15 -4 -19 -11 -15 -26 3 -14 0 -21 -10 -21 -8 0 -11 5 -7 12 4 7 -9 -2 -29 -21 l-36 -34 -78 76 c-77 76 -103 92 -103 62 0 -17 -16 -20 -25 -5 -3 6 1 13 9 16 22 9 20 31 -4 39 -11 4 -18 10 -15 15 6 9 -13 25 -30 25 -5 0 -10 5 -10 10 0 18 -122 131 -136 127 -8 -3 -11 -1 -7 3 10 10 -50 65 -70 65 -8 0 -12 6 -9 13 5 14 -18 39 -28 29 -4 -4 -5 -2 -3 4 4 15 -71 84 -92 84 -9 0 -21 -5 -28 -12 -6 -6 -15 -9 -19 -5 -3 4 2 14 13 22 19 15 19 15 0 30 -11 8 -14 15 -7 15 9 0 8 4 -3 15 -8 8 -19 15 -25 15 -5 0 -14 7 -19 16 -8 14 -27 21 -61 23 -11 1 -11 4 -1 16 11 13 9 19 -8 35 -12 11 -25 20 -29 20 -5 0 -13 10 -18 21 -15 32 -30 28 -33 -8 -2 -21 1 -33 9 -33 8 0 6 -6 -4 -18 -13 -15 -17 -38 -16 -108 1 -77 15 -173 18 -121 1 19 21 24 22 5 0 -7 2 -21 4 -30 2 -10 -1 -18 -6 -18 -5 0 -9 -9 -9 -20 0 -45 -19 -15 -30 48 -21 117 -10 362 16 362 3 0 37 -30 75 -66z m-56 16 c3 -5 1 -10 -4 -10 -6 0 -11 5 -11 10 0 6 2 10 4 10 3 0 8 -4 11 -10z m-8 -37 c-4 -3 -7 0 -7 7 0 7 3 10 7 7 3 -4 3 -10 0 -14z m50 -60 c-4 -3 -10 -3 -14 0 -3 4 0 7 7 7 7 0 10 -3 7 -7z m1638 -107 c-21 -226 -102 -405 -254 -557 -124 -123 -258 -197 -427 -235 -119 -26 -341 -15 -449 22 -258 89 -453 274 -543 517 -26 69 -26 68 -7 61 10 -4 15 0 16 12 0 15 2 14 10 -5 6 -16 6 -28 -2 -37 -6 -7 -8 -21 -5 -31 8 -26 72 -124 77 -118 3 2 6 -8 7 -23 1 -14 7 -31 13 -37 7 -7 8 -4 3 10 -4 11 -4 17 0 13 4 -3 8 -13 10 -21 1 -12 67 -96 111 -143 23 -25 145 -104 145 -94 0 5 7 10 15 10 18 0 20 -16 3 -24 -7 -3 -4 -4 7 -3 11 1 19 -3 18 -9 -1 -6 13 -16 32 -21 27 -9 37 -8 46 3 13 16 69 19 69 4 0 -5 -13 -10 -30 -10 -19 0 -30 -5 -30 -14 0 -15 14 -22 68 -31 18 -3 57 -12 87 -20 83 -21 264 -17 249 6 -3 5 7 9 23 8 25 0 26 -1 8 -9 l-20 -9 20 0 c11 0 38 6 60 14 22 8 48 15 57 15 9 0 47 14 85 32 37 17 74 31 81 31 6 0 12 4 12 8 0 5 27 26 59 49 72 48 79 58 40 52 -30 -4 -37 6 -17 26 15 15 58 16 58 2 0 -16 17 -12 24 6 3 8 2 12 -4 9 -14 -9 -12 17 4 38 18 23 30 22 23 -3 -7 -26 -5 -25 24 7 18 19 19 25 7 20 -10 -3 -20 -2 -24 4 -10 16 3 22 24 10 17 -9 23 -6 36 14 9 14 14 25 11 25 -4 0 2 9 48 62 9 12 17 28 17 36 0 9 6 23 13 31 19 22 39 99 31 113 -4 7 -3 8 4 4 8 -5 12 2 12 21 0 16 5 34 10 39 6 6 13 61 17 124 4 82 9 107 15 90 5 -13 6 -56 3 -94z m-1648 27 c-4 -3 -10 -3 -14 0 -3 4 0 7 7 7 7 0 10 -3 7 -7z m123 -7 c0 -3 -4 -8 -10 -11 -5 -3 -10 -1 -10 4 0 6 5 11 10 11 6 0 10 -2 10 -4z m1377 -32 c-3 -3 -12 -4 -19 -1 -8 3 -5 6 6 6 11 1 17 -2 13 -5z m-1440 -51 c-4 -3 -7 0 -7 7 0 7 3 10 7 7 3 -4 3 -10 0 -14z m168 -3 c3 -5 1 -10 -4 -10 -6 0 -11 5 -11 10 0 6 2 10 4 10 3 0 8 -4 11 -10z m30 -20 c3 -5 1 -10 -4 -10 -6 0 -11 5 -11 10 0 6 2 10 4 10 3 0 8 -4 11 -10z m-218 -92 c-3 -7 -5 -2 -5 12 0 14 2 19 5 13 2 -7 2 -19 0 -25z m370 -75 c-4 -3 -10 -3 -14 0 -3 4 0 7 7 7 7 0 10 -3 7 -7z m28 -14 c-10 -15 -25 -10 -19 6 4 8 10 12 15 9 5 -3 7 -10 4 -15z m-378 -36 c-4 -3 -7 0 -7 7 0 7 3 10 7 7 3 -4 3 -10 0 -14z m1110 -50 c-3 -3 -11 -2 -17 2 -9 6 -9 10 1 16 14 8 27 -7 16 -18z m-222 -123 c3 -5 4 -10 1 -10 -3 0 -8 5 -11 10 -3 6 -4 10 -1 10 3 0 8 -4 11 -10z m-685 -96 c0 -8 -4 -14 -10 -14 -5 0 -10 9 -10 21 0 11 5 17 10 14 6 -3 10 -13 10 -21z m538 -24 c-4 -20 -30 -20 -33 0 -2 10 5 16 17 16 11 0 18 -6 16 -16z m82 -5 c0 -8 -4 -15 -10 -15 -5 0 -7 7 -4 15 4 8 8 15 10 15 2 0 4 -7 4 -15z m367 -12 c-4 -3 -10 -3 -14 0 -3 4 0 7 7 7 7 0 10 -3 7 -7z m-447 -53 c0 -5 -7 -10 -15 -10 -8 0 -15 5 -15 10 0 6 7 10 15 10 8 0 15 -4 15 -10z m170 -20 c0 -5 -2 -10 -4 -10 -3 0 -8 5 -11 10 -3 6 -1 10 4 10 6 0 11 -4 11 -10z m107 -7 c-4 -3 -7 0 -7 7 0 7 3 10 7 7 3 -4 3 -10 0 -14z m-337 -13 c0 -12 -8 -12 -35 0 -18 8 -17 9 8 9 15 1 27 -3 27 -9z m257 -37 c-4 -3 -10 -3 -14 0 -3 4 0 7 7 7 7 0 10 -3 7 -7z"/>
 </g>
<g id="layer116" fill="#fdfdfc" stroke="none">
 <path d="M0 825 l0 -825 1000 0 1000 0 0 825 0 825 -1000 0 -1000 0 0 -825z m1268 768 c100 -15 182 -30 182 -33 0 -4 -100 -17 -222 -30 l-222 -23 -226 22 c-124 13 -227 25 -229 27 -9 8 9 12 169 36 222 34 325 34 548 1z m-828 -193 l0 -70 -110 0 -110 0 0 70 0 70 110 0 110 0 0 -70z m338 3 l-3 -68 -110 0 -110 0 -3 54 c-5 83 -7 81 118 81 l111 0 -3 -67z m332 -3 l0 -70 -110 0 -110 0 0 70 0 70 110 0 110 0 0 -70z m338 3 l-3 -68 -110 0 -110 0 -3 68 -3 67 116 0 116 0 -3 -67z m332 -3 l0 -70 -110 0 -110 0 0 70 0 70 110 0 110 0 0 -70z m-890 -135 c17 -50 53 -75 110 -75 57 0 93 25 111 75 12 33 16 35 56 35 39 0 44 -3 57 -33 20 -50 60 -77 113 -77 38 0 50 5 79 34 19 19 34 41 34 50 0 12 11 16 49 16 45 0 50 -2 61 -30 38 -92 178 -94 216 -4 l14 34 82 0 c45 0 79 -2 77 -4 -2 -2 -74 -36 -159 -74 -85 -38 -298 -135 -472 -215 l-317 -145 -313 143 c-172 78 -387 177 -478 219 l-165 76 88 0 c76 0 87 -2 87 -17 0 -10 8 -28 18 -39 56 -70 168 -56 202 26 11 28 16 30 61 30 44 0 49 -3 55 -25 10 -40 59 -75 104 -75 58 0 87 18 111 67 20 41 23 43 64 43 41 0 44 -2 55 -35z m-319 -565 c210 -206 390 -383 400 -393 9 -11 24 -17 32 -15 9 1 194 179 412 393 219 215 403 393 410 398 19 11 22 2 34 -104 29 -262 -59 -511 -248 -700 -124 -123 -258 -197 -427 -235 -119 -26 -341 -15 -449 22 -264 91 -457 278 -548 531 -36 100 -49 182 -48 306 1 124 14 192 35 180 8 -5 186 -177 397 -383z"/>
 </g>

</svg>